<svg xmlns="http://www.w3.org/2000/svg" viewBox="0 0 24 32"><ellipse cx="12" cy="18.6" rx="9.6" ry="13.4" fill="#f7f4ef" opacity=".92"/><rect x="10.4" y="21.8" width="2.4" height="9.8" rx="1.2" fill="#1f2a4d" transform="rotate(22 11.6 21.8)"/><rect x="11.2" y="21.8" width="2.4" height="9.8" rx="1.2" fill="#1f2a4d" transform="rotate(-20 12.4 21.8)"/><ellipse cx="8.6" cy="31" rx="1.9" ry="1" fill="#1f2a4d"/><ellipse cx="15.6" cy="31" rx="1.9" ry="1" fill="#1f2a4d"/><g transform="rotate(10 12 22)"><rect x="7.6" y="12.6" width="5.4" height="9.4" rx="2.2" fill="#4f6d8f"/><rect x="8.4" y="12" width="7.2" height="11" rx="3.2" fill="#e8573c"/><circle cx="12.4" cy="8.6" r="3.4" fill="#ffd9b0"/><path d="M8.9 8.4 Q9.1 4.6 12.4 4.5 Q15.7 4.6 15.9 8.4 Z" fill="#e8573c"/><rect x="8.8" y="7.3" width="7.2" height="1.5" rx="0.75" fill="#c4452d"/><circle cx="12.4" cy="4.3" r="1.1" fill="#c4452d"/><circle cx="14.1" cy="9.2" r="0.45" fill="#1f2a4d"/></g><rect x="18.5" y="16" width="1" height="16" rx="0.5" fill="#1f2a4d" transform="rotate(12 19 32)"/><g transform="rotate(-40 15 14)"><rect x="13.9" y="14" width="2.2" height="7.2" rx="1.1" fill="#c4452d"/><circle cx="15" cy="21.2" r="1.1" fill="#ffd9b0"/></g></svg>
